<svg width="40" height="40" viewBox="0 0 40 40" fill="none" xmlns="http://www.w3.org/2000/svg">
<path d="M3.75191 15.0293H36.2479C36.2479 15.0293 37.1559 14.2853 36.2479 13.3373L20.0039 3.77734L3.75191 13.3333C3.75191 13.3333 2.62791 14.3453 3.75191 15.0293ZM37.3079 34.9133L35.3479 33.2093C35.2399 33.1173 34.9959 33.0413 34.7959 33.0413L5.60391 33.0853C5.40791 33.0853 5.14791 33.1573 5.02791 33.2453L2.71991 34.9213C2.59991 35.0093 2.50391 35.1693 2.50391 35.2773V36.0253C2.50391 36.1333 2.66391 36.2253 2.86391 36.2253H37.1479C37.3439 36.2253 37.5079 36.1373 37.5079 36.0253V35.2813C37.4999 35.1693 37.4119 35.0053 37.3079 34.9133ZM32.1599 16.3533H35.1519V31.3493H32.1599V16.3533ZM27.2639 16.3533H30.2559V31.3493H27.2639V16.3533ZM10.2079 16.3533H13.1999V31.3493H10.2079V16.3533ZM5.31191 16.3533H8.30391V31.3493H5.31191V16.3533ZM20.0639 31.3293C20.2919 31.3293 20.5199 31.2973 20.7359 31.2333V29.4173C21.6639 29.2093 22.3719 28.8093 22.8599 28.2173C23.3439 27.6293 23.5879 26.9053 23.5879 26.0493C23.5879 25.5373 23.5239 25.1133 23.3999 24.7733C23.2759 24.4333 23.0999 24.1453 22.8759 23.9133C22.6519 23.6773 22.3759 23.4773 22.0519 23.3093C21.7279 23.1413 21.3679 22.9733 20.9719 22.8093L20.0319 22.4173C19.8759 22.3533 19.7199 22.2853 19.5639 22.2133C19.4079 22.1413 19.2679 22.0533 19.1399 21.9533C19.0159 21.8533 18.9159 21.7333 18.8439 21.5853C18.7719 21.4373 18.7359 21.2613 18.7359 21.0533C18.7359 20.8133 18.7839 20.6173 18.8759 20.4653C18.9679 20.3133 19.0879 20.1973 19.2359 20.1133C19.3839 20.0293 19.5479 19.9733 19.7279 19.9493C19.9119 19.9253 20.0919 19.9093 20.2679 19.9093C20.5599 19.9093 20.8199 19.9213 21.0519 19.9493C21.2799 19.9773 21.4879 20.0093 21.6719 20.0493C21.8559 20.0893 22.0279 20.1453 22.1879 20.2053C22.3479 20.2693 22.5079 20.3293 22.6639 20.3933C22.9359 19.8093 23.1039 19.2133 23.1639 18.6093C22.7359 18.4613 22.3279 18.3453 21.9439 18.2573C21.5559 18.1693 21.1559 18.1093 20.7359 18.0773V16.4653C20.4959 16.4013 20.2679 16.3733 20.0479 16.3733C19.8199 16.3733 19.5919 16.4053 19.3759 16.4653V18.1253C18.4359 18.2413 17.6999 18.5693 17.1679 19.1133C16.6359 19.6573 16.3679 20.3973 16.3679 21.3373C16.3679 21.7773 16.4239 22.1453 16.5319 22.4493C16.6399 22.7533 16.7999 23.0173 16.9999 23.2413C17.2039 23.4653 17.4479 23.6573 17.7279 23.8213C18.0079 23.9853 18.3239 24.1373 18.6679 24.2853L19.4999 24.6453C19.6759 24.7293 19.8599 24.8093 20.0479 24.8813C20.2359 24.9533 20.4039 25.0413 20.5559 25.1493C20.7079 25.2533 20.8319 25.3853 20.9319 25.5493C21.0319 25.7093 21.0799 25.9173 21.0799 26.1693C21.0799 26.6693 20.8999 27.0333 20.5399 27.2573C20.1799 27.4813 19.6719 27.5933 19.0119 27.5933C18.5719 27.5933 18.1599 27.5613 17.7759 27.4933C17.3879 27.4253 16.9759 27.3013 16.5399 27.1253C16.4239 27.4613 16.3239 27.7813 16.2439 28.0893C16.1599 28.3973 16.1039 28.7013 16.0719 29.0053C16.3319 29.1093 16.5839 29.1973 16.8239 29.2733C17.0639 29.3453 17.3079 29.4053 17.5519 29.4533C17.7959 29.5013 18.0559 29.5333 18.3279 29.5533C18.5999 29.5733 18.9079 29.5853 19.2519 29.5853H19.3759V31.2453C19.6039 31.2973 19.8359 31.3293 20.0639 31.3293Z" fill="url(#paint0_linear_2_69)"/>
<defs>
<linearGradient id="paint0_linear_2_69" x1="2.50391" y1="20.0013" x2="37.5079" y2="20.0013" gradientUnits="userSpaceOnUse">
<stop stop-color="#3374AB"/>
<stop offset="0.598958" stop-color="#5AB1F3"/>
<stop offset="1" stop-color="#6BD8FE"/>
</linearGradient>
</defs>
</svg>
