<svg width="40" height="40" viewBox="0 0 40 40" fill="none" xmlns="http://www.w3.org/2000/svg">
<path d="M20 13C18.292 13 16.766 13.78 15.758 15C15.136 15.7538 14.7261 16.6597 14.5704 17.6246C14.4148 18.5894 14.5191 19.5783 14.8725 20.4895C15.2259 21.4006 15.8157 22.2012 16.5813 22.8087C17.3468 23.4162 18.2604 23.8088 19.228 23.946C20.5433 21.4087 22.7917 19.4808 25.5 18.568V18.5C25.5 17.17 25.028 15.95 24.242 15C23.234 13.78 21.708 13 20 13ZM37.354 21.844C36.1563 20.4423 34.6247 19.3649 32.9008 18.7113C31.1768 18.0576 29.316 17.8488 27.49 18.104C27.4347 17.0195 27.1432 15.9602 26.636 15H35C35.7957 15 36.5587 15.3161 37.1213 15.8787C37.6839 16.4413 38 17.2044 38 18V19C38 19.96 37.78 20.928 37.354 21.844ZM18.414 26C18.144 26.954 18 27.96 18 29C18 32.594 19.722 35.784 22.388 37.79C21.5999 37.9316 20.8007 38.0019 20 38C13.72 38 10 33.942 10 30V29C9.99894 28.6057 10.0758 28.2152 10.2262 27.8507C10.3766 27.4862 10.5975 27.1551 10.8763 26.8763C11.1551 26.5975 11.4862 26.3766 11.8507 26.2262C12.2152 26.0758 12.6057 25.9989 13 26H18.414ZM8.63 26.568C4.41 25.426 2 22.174 2 19V18C2 17.2044 2.31607 16.4413 2.87868 15.8787C3.44129 15.3161 4.20435 15 5 15H13.366C12.7958 16.0784 12.4985 17.2801 12.5 18.5C12.4987 19.5328 12.7112 20.5546 13.1243 21.5012C13.5373 22.4478 14.1419 23.2986 14.9 24H13C12.1088 23.9998 11.2338 24.2377 10.4655 24.6892C9.69715 25.1407 9.06346 25.7894 8.63 26.568ZM12 2C13.4587 2 14.8576 2.57946 15.8891 3.61091C16.9205 4.64236 17.5 6.04131 17.5 7.5C17.5 8.95869 16.9205 10.3576 15.8891 11.3891C14.8576 12.4205 13.4587 13 12 13C10.5413 13 9.14236 12.4205 8.11091 11.3891C7.07946 10.3576 6.5 8.95869 6.5 7.5C6.5 6.04131 7.07946 4.64236 8.11091 3.61091C9.14236 2.57946 10.5413 2 12 2ZM28 2C29.4587 2 30.8576 2.57946 31.8891 3.61091C32.9205 4.64236 33.5 6.04131 33.5 7.5C33.5 8.95869 32.9205 10.3576 31.8891 11.3891C30.8576 12.4205 29.4587 13 28 13C26.5413 13 25.1424 12.4205 24.1109 11.3891C23.0795 10.3576 22.5 8.95869 22.5 7.5C22.5 6.04131 23.0795 4.64236 24.1109 3.61091C25.1424 2.57946 26.5413 2 28 2ZM29 38C31.3869 38 33.6761 37.0518 35.364 35.364C37.0518 33.6761 38 31.3869 38 29C38 26.6131 37.0518 24.3239 35.364 22.636C33.6761 20.9482 31.3869 20 29 20C26.6131 20 24.3239 20.9482 22.636 22.636C20.9482 24.3239 20 26.6131 20 29C20 31.3869 20.9482 33.6761 22.636 35.364C24.3239 37.0518 26.6131 38 29 38ZM29 24C29.2652 24 29.5196 24.1054 29.7071 24.2929C29.8946 24.4804 30 24.7348 30 25V28H33C33.2652 28 33.5196 28.1054 33.7071 28.2929C33.8946 28.4804 34 28.7348 34 29C34 29.2652 33.8946 29.5196 33.7071 29.7071C33.5196 29.8946 33.2652 30 33 30H30V33C30 33.2652 29.8946 33.5196 29.7071 33.7071C29.5196 33.8946 29.2652 34 29 34C28.7348 34 28.4804 33.8946 28.2929 33.7071C28.1054 33.5196 28 33.2652 28 33V30H25C24.7348 30 24.4804 29.8946 24.2929 29.7071C24.1054 29.5196 24 29.2652 24 29C24 28.7348 24.1054 28.4804 24.2929 28.2929C24.4804 28.1054 24.7348 28 25 28H28V25C28 24.7348 28.1054 24.4804 28.2929 24.2929C28.4804 24.1054 28.7348 24 29 24Z" fill="url(#paint0_linear_2_51)"/>
<defs>
<linearGradient id="paint0_linear_2_51" x1="2" y1="20" x2="38" y2="20" gradientUnits="userSpaceOnUse">
<stop stop-color="#3374AB"/>
<stop offset="0.598958" stop-color="#5AB1F3"/>
<stop offset="1" stop-color="#6BD8FE"/>
</linearGradient>
</defs>
</svg>
