<svg width="40" height="40" viewBox="0 0 40 40" fill="none" xmlns="http://www.w3.org/2000/svg">
<path d="M8 8C8 6.93913 8.42143 5.92172 9.17157 5.17157C9.92172 4.42143 10.9391 4 12 4H26C27.0609 4 28.0783 4.42143 28.8284 5.17157C29.5786 5.92172 30 6.93913 30 8V22H36V26C36 27.5913 35.3679 29.1174 34.2426 30.2426C33.1174 31.3679 31.5913 32 30 32H22V27C22 25.6739 21.4732 24.4021 20.5355 23.4645C19.5979 22.5268 18.3261 22 17 22H8V8ZM30 30C31.0609 30 32.0783 29.5786 32.8284 28.8284C33.5786 28.0783 34 27.0609 34 26V24H30V30ZM15 10C14.7348 10 14.4804 10.1054 14.2929 10.2929C14.1054 10.4804 14 10.7348 14 11C14 11.2652 14.1054 11.5196 14.2929 11.7071C14.4804 11.8946 14.7348 12 15 12H23C23.2652 12 23.5196 11.8946 23.7071 11.7071C23.8946 11.5196 24 11.2652 24 11C24 10.7348 23.8946 10.4804 23.7071 10.2929C23.5196 10.1054 23.2652 10 23 10H15ZM15 14C14.7348 14 14.4804 14.1054 14.2929 14.2929C14.1054 14.4804 14 14.7348 14 15C14 15.2652 14.1054 15.5196 14.2929 15.7071C14.4804 15.8946 14.7348 16 15 16H23C23.2652 16 23.5196 15.8946 23.7071 15.7071C23.8946 15.5196 24 15.2652 24 15C24 14.7348 23.8946 14.4804 23.7071 14.2929C23.5196 14.1054 23.2652 14 23 14H15ZM17 24C17.7956 24 18.5587 24.3161 19.1213 24.8787C19.6839 25.4413 20 26.2044 20 27V33C20 33.7956 19.6839 34.5587 19.1213 35.1213C18.5587 35.6839 17.7956 36 17 36H5C4.20435 36 3.44129 35.6839 2.87868 35.1213C2.31607 34.5587 2 33.7956 2 33V27C2 26.2044 2.31607 25.4413 2.87868 24.8787C3.44129 24.3161 4.20435 24 5 24H17ZM18 33V31C17.2044 31 16.4413 31.3161 15.8787 31.8787C15.3161 32.4413 15 33.2044 15 34H17C17 33.7348 17.1054 33.4804 17.2929 33.2929C17.4804 33.1054 17.7348 33 18 33ZM18 27C17.7348 27 17.4804 26.8946 17.2929 26.7071C17.1054 26.5196 17 26.2652 17 26H15C15 26.7956 15.3161 27.5587 15.8787 28.1213C16.4413 28.6839 17.2044 29 18 29V27ZM5 26C5 26.2652 4.89464 26.5196 4.70711 26.7071C4.51957 26.8946 4.26522 27 4 27V29C4.79565 29 5.55871 28.6839 6.12132 28.1213C6.68393 27.5587 7 26.7956 7 26H5ZM4 33C4.26522 33 4.51957 33.1054 4.70711 33.2929C4.89464 33.4804 5 33.7348 5 34H7C7 33.2044 6.68393 32.4413 6.12132 31.8787C5.55871 31.3161 4.79565 31 4 31V33ZM11 27C10.2044 27 9.44129 27.3161 8.87868 27.8787C8.31607 28.4413 8 29.2044 8 30C8 30.7956 8.31607 31.5587 8.87868 32.1213C9.44129 32.6839 10.2044 33 11 33C11.7956 33 12.5587 32.6839 13.1213 32.1213C13.6839 31.5587 14 30.7956 14 30C14 29.2044 13.6839 28.4413 13.1213 27.8787C12.5587 27.3161 11.7956 27 11 27Z" fill="url(#paint0_linear_2_60)"/>
<defs>
<linearGradient id="paint0_linear_2_60" x1="2" y1="20" x2="36" y2="20" gradientUnits="userSpaceOnUse">
<stop stop-color="#3374AB"/>
<stop offset="0.598958" stop-color="#5AB1F3"/>
<stop offset="1" stop-color="#6BD8FE"/>
</linearGradient>
</defs>
</svg>
